<svg xmlns="http://www.w3.org/2000/svg" viewBox="0 0 106 106"><defs><style>.cls-1{fill:#70cbf6;}.cls-2{fill:#fff;}.cls-3{fill:#171c1f;}.cls-4{opacity:0.25;}.cls-5{opacity:0.1;}</style></defs><title>star</title><g id="Star"><g id="Fill"><circle class="cls-1" cx="53" cy="53" r="51"/></g><g id="White"><path class="cls-2" d="M79.11,47.49a3.14,3.14,0,0,0-1.77-5.28L63,40l-.53-.08-.23-.48L55.84,25.81a3.13,3.13,0,0,0-5.67,0L43.78,39.44l-.23.48L43,40l-14.36,2.2a3.14,3.14,0,0,0-1.77,5.29L37.42,58.3l.35.36-.08.5L35.21,74.36a3.13,3.13,0,0,0,4.61,3.24l12.7-7L53,70.3l.48.27,12.69,7a3.13,3.13,0,0,0,4.61-3.25l-2.48-15.2-.08-.5.35-.36Z"/></g><g id="Inner_Lines_1" data-name="Inner Lines 1"><path class="cls-3" d="M80.77,44a4.11,4.11,0,0,0-3.29-2.77L63.12,39,56.73,25.38a4.13,4.13,0,0,0-7.48,0L42.87,39l-14.36,2.2a4.14,4.14,0,0,0-2.33,7L36.69,59,34.22,74.2a4.13,4.13,0,0,0,6.08,4.28l12.7-7,12.69,7a4.13,4.13,0,0,0,6.09-4.28L69.3,59l10.52-10.8A4.12,4.12,0,0,0,80.77,44Zm-2.39,2.8L67.86,57.6l-.7.72.16,1,2.48,15.2A2.14,2.14,0,0,1,67.69,77a2.16,2.16,0,0,1-1-.27L54,69.69l-1-.54-1,.54-12.7,7a2.12,2.12,0,0,1-2.66-.49,2.12,2.12,0,0,1-.48-1.72l2.48-15.21.16-1-.7-.72L27.61,46.8a2.13,2.13,0,0,1,1.2-3.6L43.17,41l1.05-.16.45-1,6.39-13.64a2.13,2.13,0,0,1,3.86,0l6.39,13.64.45,1,1.05.16,14.36,2.2a2.13,2.13,0,0,1,1.21,3.6Z"/></g><g id="Inner_Lines_2" data-name="Inner Lines 2" class="cls-4"><path class="cls-3" d="M53,8A45,45,0,1,0,98,53,45,45,0,0,0,53,8Zm0,88A43,43,0,1,1,96,53,43,43,0,0,1,53,96Z"/></g><g id="Shadows" class="cls-5"><path d="M67.44,58l.42-.44L78.38,46.8a2,2,0,0,0,.34-2.47,2.14,2.14,0,0,1-.34.47L67.86,55.6l-.7.72.16,1Zm3.4,19.51a4.12,4.12,0,0,1-5.16.94L53,71.44l-12.7,7a4.12,4.12,0,0,1-5.15-.94,4.08,4.08,0,0,1-.64-1.09l-.29,1.76a4.13,4.13,0,0,0,6.08,4.28l12.7-7,12.69,7a4.13,4.13,0,0,0,6.09-4.28l-.29-1.75A4.08,4.08,0,0,1,70.84,77.54Zm-1-15.12,10-10.23a3.87,3.87,0,0,0,.63-4.85,4.15,4.15,0,0,1-.63.85L69.3,59ZM38.13,57.6l.42.44.12-.72.16-1-.7-.72L27.61,44.8a2.15,2.15,0,0,1-.35-.47,2,2,0,0,0,.35,2.47ZM102,52A49,49,0,0,1,4,52c0,.33,0,.66,0,1a49,49,0,0,0,98,0C102,52.66,102,52.33,102,52ZM36.67,74.24a2.1,2.1,0,0,1-.34-.58l-.14.86A2.14,2.14,0,0,0,38.3,77a2.14,2.14,0,0,0,1-.27l12.7-7,1-.54,1,.54,12.69,7a2.16,2.16,0,0,0,1,.27,2.14,2.14,0,0,0,2.11-2.48l-.14-.86a2.1,2.1,0,0,1-.34.58,2.13,2.13,0,0,1-1.63.76,2.16,2.16,0,0,1-1-.27L54,67.69l-1-.54-1,.54-12.7,7a2.12,2.12,0,0,1-2.66-.49Zm-.53-11.82L36.69,59,26.17,48.19a4.16,4.16,0,0,1-.63-.85,3.87,3.87,0,0,0,.63,4.85Z"/></g><g id="Outline"><path class="cls-3" d="M53,0a53,53,0,1,0,53,53A53,53,0,0,0,53,0Zm0,102a49,49,0,1,1,49-49A49,49,0,0,1,53,102Z"/></g></g></svg>